<svg width="14" height="144" fill="none" xmlns="http://www.w3.org/2000/svg"><path d="M11.4 75.49v1.944c0 .656-.176 1.148-.528 1.476-.352.328-.868.492-1.548.492h-.828c-.68 0-1.196-.164-1.548-.492-.352-.328-.528-.82-.528-1.476v-.624H3v-1.32h8.4Zm-3.78 1.944c0 .216.06.376.18.48.12.112.324.168.612.168h.996c.288 0 .492-.056.612-.168.12-.104.18-.264.18-.48v-.624H7.62v.624Zm-4.74 7.233c0-.648.184-1.144.552-1.488.368-.344.888-.516 1.56-.516h4.416c.672 0 1.192.172 1.56.516.368.344.552.84.552 1.488s-.184 1.144-.552 1.488c-.368.344-.888.516-1.56.516H4.992c-.672 0-1.192-.172-1.56-.516-.368-.344-.552-.84-.552-1.488Zm1.2 0c0 .456.276.684.828.684h4.584c.552 0 .828-.228.828-.684 0-.456-.276-.684-.828-.684H4.908c-.552 0-.828.228-.828.684Zm6.12 6.522v-1.38h1.2v4.08h-1.2v-1.38H3v-1.32h7.2Zm1.2 5.979v1.956c0 .68-.16 1.176-.48 1.488-.312.312-.796.468-1.452.468h-.516c-.872 0-1.424-.288-1.656-.864h-.024c-.096.32-.292.544-.588.672-.296.136-.692.204-1.188.204H4.02c-.24 0-.436.008-.588.024a1.457 1.457 0 0 0-.432.12v-1.344c.136-.048.264-.08.384-.096s.336-.024.648-.024h1.536c.384 0 .652-.064.804-.192.152-.12.228-.332.228-.636v-.456H3v-1.32h8.4Zm-3.6 1.8c0 .264.068.46.204.588.136.136.364.204.684.204h.648c.304 0 .524-.056.66-.168.136-.104.204-.272.204-.504v-.6H7.8v.48Zm3.6 10.242v1.944c0 .656-.176 1.148-.528 1.476-.352.328-.868.492-1.548.492h-.828c-.68 0-1.196-.164-1.548-.492-.352-.328-.528-.82-.528-1.476v-.624H3v-1.32h8.4Zm-3.78 1.944c0 .216.06.376.18.48.12.112.324.168.612.168h.996c.288 0 .492-.056.612-.168.12-.104.18-.264.18-.48v-.624H7.62v.624Zm-4.74 7.232c0-.648.184-1.144.552-1.488.368-.344.888-.516 1.56-.516h4.416c.672 0 1.192.172 1.56.516.368.344.552.84.552 1.488s-.184 1.144-.552 1.488c-.368.344-.888.516-1.56.516H4.992c-.672 0-1.192-.172-1.56-.516-.368-.344-.552-.84-.552-1.488Zm1.2 0c0 .456.276.684.828.684h4.584c.552 0 .828-.228.828-.684 0-.456-.276-.684-.828-.684H4.908c-.552 0-.828.228-.828.684Zm6.12 6.522v-1.38h1.2v4.08h-1.2v-1.38H3v-1.32h7.2Zm-7.32 7.695c0-.64.18-1.124.54-1.452.368-.328.892-.492 1.572-.492h.48v1.248h-.576c-.544 0-.816.228-.816.684 0 .224.064.392.192.504.136.12.352.18.648.18.352 0 .66-.08.924-.24.272-.16.596-.456.972-.888.48-.544.912-.924 1.296-1.14a2.689 2.689 0 0 1 1.32-.324c.664 0 1.176.168 1.536.504.368.336.552.824.552 1.464 0 .632-.184 1.108-.552 1.428-.36.328-.88.492-1.56.492H9.06v-1.248h.432c.288 0 .496-.056.624-.168.136-.112.204-.276.204-.492 0-.44-.268-.66-.804-.66-.304 0-.588.08-.852.24-.264.168-.584.468-.96.9-.48.552-.916.932-1.308 1.14-.392.208-.852.312-1.38.312-.688 0-1.216-.172-1.584-.516-.368-.336-.552-.828-.552-1.476ZM7-.002v65H6v-65z" fill="#828282"/></svg>